# xmcd
#
# Track frame offsets:
# 150
# 19165
# 58982
#
# Disc length: 1044 seconds
#
#
# Revision: 0
# Processed by: cddbd v1.5.1PL2 Copyright (c) Steve Scherf et al.
# Submitted via: FreeRIP 2.942 
#
DISCID=23041203
DTITLE=Nikka Costa - Treat Her Right (single)
DYEAR=1996
DGENRE=Blues
TTITLE0=Treat Her Right
TTITLE1=Treat Her Right (Red Thread Zen Mix)
TTITLE2=Skin
EXTD=
EXTT0=
EXTT1=
EXTT2=
PLAYORDER=
